# xmcd
#
# Track frame offsets: 
#        183
#        13105
#        29923
#        47475
#        65863
#        82563
#        98475
#        110365
#        124013
#        139113
#
# Disc length: 2091 seconds
#
# Revision: 3
# Processed by: cddbd v1.5.2PL0 Copyright (c) Steve Scherf et al.
# Submitted via: ExactAudioCopy v1.3
#
DISCID=7d08290a
DTITLE=Emmylou Harris - Blue Kentucky Girl
DYEAR=1979
DGENRE=CountryRock
TTITLE0=Sister's Coming Home [with Tanya Tucker]
TTITLE1=Beneath Still Waters
TTITLE2=Rough And Rocky
TTITLE3=Hickory Wind
TTITLE4=Save The Last Dance For Me
TTITLE5=Sorrow In The Wind
TTITLE6=They'll Never Take His Love From Me
TTITLE7=Everytime You Leave [with Don Everly]
TTITLE8=Blue Kentucky Girl
TTITLE9=Even Cowgirls Get The Blues
EXTD=
EXTT0=
EXTT1=
EXTT2=
EXTT3=
EXTT4=
EXTT5=
EXTT6=
EXTT7=
EXTT8=
EXTT9=
PLAYORDER=
